<svg width="35" height="35" viewBox="0 0 35 35" fill="none" xmlns="http://www.w3.org/2000/svg">
<path fill-rule="evenodd" clip-rule="evenodd" d="M28.4618 5.03457C28.7313 5.02492 28.9936 5.12271 29.1909 5.30643C29.3883 5.49015 29.5046 5.74475 29.5143 6.01423L29.9509 18.2067C29.9605 18.4762 29.8627 18.7385 29.679 18.9359C29.4953 19.1332 29.2407 19.2495 28.9712 19.2592C28.7018 19.2688 28.4395 19.171 28.2421 18.9873C28.0447 18.8036 27.9284 18.549 27.9188 18.2795L27.57 8.53973L7.69086 29.8977C7.59977 29.9955 7.49031 30.0745 7.36871 30.13C7.24711 30.1855 7.11577 30.2166 6.98217 30.2214C6.84857 30.2262 6.71534 30.2046 6.59008 30.1579C6.46482 30.1112 6.34999 30.0403 6.25214 29.9492C6.15429 29.8581 6.07534 29.7486 6.01979 29.627C5.96425 29.5054 5.9332 29.3741 5.92841 29.2405C5.92363 29.1069 5.9452 28.9737 5.99191 28.8484C6.03862 28.7231 6.10953 28.6083 6.20062 28.5105L26.0819 7.15449L16.3421 7.50328C16.0726 7.51293 15.8103 7.41514 15.613 7.23142C15.4156 7.0477 15.2993 6.7931 15.2896 6.52362C15.28 6.25415 15.3778 5.99188 15.5615 5.79452C15.7452 5.59715 15.9998 5.48085 16.2693 5.4712L28.4618 5.03457Z" fill="white"/>
</svg>
