<svg width="14" height="16" viewBox="0 0 14 16" fill="none" xmlns="http://www.w3.org/2000/svg">
<g clip-path="url(#clip0_11476_8275)">
<path d="M6.85313 12.3531C6.65938 12.55 6.34062 12.55 6.14687 12.3531L4.14687 10.3531C3.95 10.1594 3.95 9.84063 4.14687 9.64688C4.34062 9.45 4.65938 9.45 4.85313 9.64688L6.5 11.2937L9.64688 8.14688C9.84063 7.95 10.1594 7.95 10.3531 8.14688C10.55 8.34063 10.55 8.65937 10.3531 8.85312L6.85313 12.3531ZM4 2H10V0.5C10 0.223875 10.225 0 10.5 0C10.775 0 11 0.223875 11 0.5V2H12C13.1031 2 14 2.89531 14 4V14C14 15.1031 13.1031 16 12 16H2C0.895313 16 0 15.1031 0 14V4C0 2.89531 0.895313 2 2 2H3V0.5C3 0.223875 3.225 0 3.5 0C3.775 0 4 0.223875 4 0.5V2ZM1 14C1 14.5531 1.44781 15 2 15H12C12.5531 15 13 14.5531 13 14V6H1V14ZM1 4V5H13V4C13 3.44688 12.5531 3 12 3H2C1.44781 3 1 3.44688 1 4Z" fill="#090B0E"/>
</g>
<defs>
<clipPath id="clip0_11476_8275">
<rect width="14" height="16" fill="white"/>
</clipPath>
</defs>
</svg>
