<svg width="24" height="24" viewBox="0 0 24 24" fill="none" xmlns="http://www.w3.org/2000/svg">
<path d="M5.31727 1.28657C5.88395 1.40369 6.33525 1.78443 6.61564 2.28746L7.50885 3.88991C7.83786 4.48011 8.11473 4.9768 8.29555 5.40857C8.48735 5.86659 8.60127 6.31824 8.54919 6.81761C8.49712 7.31697 8.29246 7.7354 8.01029 8.14399C7.74428 8.52917 7.37089 8.95804 6.92719 9.46767L5.61418 10.9759C5.37889 11.2461 5.26124 11.3813 5.25049 11.5502C5.23974 11.7191 5.33616 11.8633 5.52901 12.1518C7.17259 14.6109 9.38773 16.8268 11.8488 18.4718C12.1374 18.6647 12.2816 18.7611 12.4505 18.7503C12.6194 18.7396 12.7546 18.6219 13.0248 18.3867L14.5331 17.0736C15.0427 16.6299 15.4716 16.2565 15.8568 15.9905C16.2654 15.7083 16.6838 15.5036 17.1832 15.4516C17.6825 15.3995 18.1342 15.5134 18.5922 15.7052C19.0239 15.886 19.5206 16.1629 20.1107 16.4918L21.7133 17.3851C22.2163 17.6655 22.5971 18.1168 22.7142 18.6835C22.8326 19.2561 22.658 19.8317 22.2724 20.3047C20.8735 22.021 18.6323 23.1139 16.281 22.6396C14.8358 22.348 13.4098 21.8623 11.6851 20.8732C8.2197 18.8858 5.11263 15.777 3.12756 12.3157C2.13844 10.591 1.65272 9.16501 1.36118 7.71974C0.88688 5.36852 1.97972 3.12724 3.69608 1.72834C4.16912 1.34279 4.74466 1.16822 5.31727 1.28657Z" fill="#194290"/>
<path d="M12.9643 7.75012L12.8572 7.75002H12.0001C11.5858 7.75002 11.2501 7.41423 11.2501 7.00002C11.2501 6.58581 11.5858 6.25002 12.0001 6.25002H12.8572L12.8886 6.25001C13.0625 6.24993 13.2582 6.24984 13.4247 6.2716C13.6208 6.29723 13.8856 6.36451 14.1116 6.58431C14.3407 6.80698 14.4139 7.07286 14.4416 7.27342C14.4646 7.43959 14.4645 7.63385 14.4644 7.80162L14.4643 7.83335L14.4644 7.87643C14.4644 8.23188 14.4645 8.57151 14.4259 8.85048C14.3825 9.1645 14.2779 9.51 13.9861 9.79369C13.6248 10.145 13.157 10.2187 12.7501 10.2392V11.1667V11.2499L12.8572 11.25H13.7143C14.1286 11.25 14.4643 11.5858 14.4643 12C14.4643 12.4142 14.1286 12.75 13.7143 12.75H12.8572H12.8258C12.6519 12.7501 12.4563 12.7502 12.2897 12.7284C12.0936 12.7028 11.8289 12.6355 11.6028 12.4157C11.3738 12.1931 11.3006 11.9272 11.2728 11.7266C11.2498 11.5604 11.25 11.3662 11.2501 11.1984V11.1667V10L11.25 9.97772C11.2499 9.88287 11.2498 9.74766 11.2661 9.6278C11.2868 9.47549 11.3452 9.24408 11.5444 9.04599C11.7432 8.84822 11.9752 8.79145 12.1192 8.77006C12.2381 8.7524 12.374 8.7495 12.475 8.74735L12.4979 8.74685C12.7289 8.74171 12.8533 8.7285 12.9271 8.71136L12.9285 8.71102C12.9321 8.69507 12.9361 8.67351 12.94 8.64501C12.9627 8.48138 12.9643 8.24798 12.9643 7.83335V7.75012Z" fill="#194290"/>
<path d="M15.8555 6.25C16.2697 6.25 16.6055 6.58579 16.6055 7V8.75H17.2484V7C17.2484 6.58579 17.5841 6.25 17.9984 6.25C18.4126 6.25 18.7484 6.58579 18.7484 7V12C18.7484 12.4142 18.4126 12.75 17.9984 12.75C17.5841 12.75 17.2484 12.4142 17.2484 12V10.25H16.5412H16.5135C16.3773 10.2501 16.2112 10.2502 16.0678 10.2315C15.8951 10.2089 15.6466 10.1477 15.4331 9.94011C15.2166 9.72965 15.1497 9.47969 15.1251 9.30183C15.1052 9.15807 15.1054 8.99254 15.1055 8.86108V8.83333V7C15.1055 6.58579 15.4413 6.25 15.8555 6.25Z" fill="#194290"/>
<path fill-rule="evenodd" clip-rule="evenodd" d="M19.4584 4.54162C17.0696 2.15279 13.1965 2.15279 10.8077 4.54162C10.7221 4.62725 10.6396 4.71473 10.5602 4.8039C10.2847 5.11327 9.81065 5.14077 9.50128 4.86533C9.19192 4.58989 9.16442 4.11581 9.43986 3.80645C9.53851 3.69564 9.64091 3.58709 9.74705 3.48096C12.7217 0.506347 17.5445 0.506347 20.5191 3.48096C23.4937 6.45556 23.4937 11.2784 20.5191 14.253C20.4129 14.3591 20.3044 14.4615 20.1936 14.5601C19.8842 14.8356 19.4101 14.8081 19.1347 14.4987C18.8593 14.1894 18.8868 13.7153 19.1961 13.4399C19.2853 13.3604 19.3728 13.2779 19.4584 13.1923C21.8472 10.8035 21.8472 6.93044 19.4584 4.54162Z" fill="#194290"/>
</svg>
