<svg width="28" height="28" viewBox="0 0 28 28" fill="none" xmlns="http://www.w3.org/2000/svg">
<g clip-path="url(#clip0_11501_19983)">
<path d="M24.4987 14.2567C24.4987 7.85167 19.5287 3.5 13.9987 3.5C8.52703 3.5 3.4987 7.75833 3.4987 14.3267C2.7987 14.7233 2.33203 15.47 2.33203 16.3333V18.6667C2.33203 19.95 3.38203 21 4.66536 21H5.83203V13.8833C5.83203 9.36833 9.4837 5.71667 13.9987 5.71667C18.5137 5.71667 22.1654 9.36833 22.1654 13.8833V22.1667H12.832V24.5H22.1654C23.4487 24.5 24.4987 23.45 24.4987 22.1667V20.7433C25.187 20.3817 25.6654 19.67 25.6654 18.83V16.1467C25.6654 15.33 25.187 14.6183 24.4987 14.2567Z" fill="#194290"/>
<path d="M10.4987 16.3333C11.143 16.3333 11.6654 15.811 11.6654 15.1667C11.6654 14.5223 11.143 14 10.4987 14C9.85437 14 9.33203 14.5223 9.33203 15.1667C9.33203 15.811 9.85437 16.3333 10.4987 16.3333Z" fill="#194290"/>
<path d="M17.4987 16.3333C18.143 16.3333 18.6654 15.811 18.6654 15.1667C18.6654 14.5223 18.143 14 17.4987 14C16.8544 14 16.332 14.5223 16.332 15.1667C16.332 15.811 16.8544 16.3333 17.4987 16.3333Z" fill="#194290"/>
<path d="M20.9976 12.8683C20.4376 9.54333 17.5443 7 14.0559 7C10.5209 7 6.7176 9.92833 7.02094 14.525C9.9026 13.3467 12.0726 10.78 12.6909 7.65333C14.2193 10.7217 17.3576 12.8333 20.9976 12.8683Z" fill="#194290"/>
</g>
<defs>
<clipPath id="clip0_11501_19983">
<rect width="28" height="28" fill="white"/>
</clipPath>
</defs>
</svg>
