<svg width="20" height="20" viewBox="0 0 20 20" fill="none" xmlns="http://www.w3.org/2000/svg">
<g clip-path="url(#clip0_11501_20226)">
<path d="M8.33415 15.8349V11.6682H11.6675V15.8349C11.6675 16.2932 12.0425 16.6682 12.5008 16.6682H15.0008C15.4591 16.6682 15.8341 16.2932 15.8341 15.8349V10.0016H17.2508C17.6341 10.0016 17.8175 9.52656 17.5258 9.27656L10.5591 3.00156C10.2425 2.71823 9.75915 2.71823 9.44248 3.00156L2.47581 9.27656C2.19248 9.52656 2.36748 10.0016 2.75081 10.0016H4.16748V15.8349C4.16748 16.2932 4.54248 16.6682 5.00081 16.6682H7.50081C7.95915 16.6682 8.33415 16.2932 8.33415 15.8349Z" fill="white"/>
</g>
<defs>
<clipPath id="clip0_11501_20226">
<rect width="20" height="20" fill="white"/>
</clipPath>
</defs>
</svg>
