<svg width="24" height="25" viewBox="0 0 24 25" fill="none" xmlns="http://www.w3.org/2000/svg">
<path d="M14.5 9.5C14.5 10.8807 13.3807 12 12 12C10.6193 12 9.5 10.8807 9.5 9.5C9.5 8.11929 10.6193 7 12 7C13.3807 7 14.5 8.11929 14.5 9.5Z" stroke="#164D59" stroke-width="1.5"/>
<path d="M19 9.7C19 15.3 12 18.5 12 18.5C12 18.5 5 15.3 5 9.7C5 5.72355 8.13401 2.5 12 2.5C15.866 2.5 19 5.72355 19 9.7Z" stroke="#164D59" stroke-width="1.5"/>
<path d="M18 19.5C18 21.1569 15.3137 22.5 12 22.5C8.68629 22.5 6 21.1569 6 19.5" stroke="#164D59" stroke-width="1.5"/>
</svg>
