<svg width="51" height="32" viewBox="0 0 51 32" fill="none" xmlns="http://www.w3.org/2000/svg">
<path d="M31.3639 0.000567488L25.7352 3.74567V9.05139L31.4302 15.3074V0.200804L39.3335 2.22184V15.808L39.5386 16.0376L39.5188 2.0776L31.3639 0V0.000567488ZM32.6955 2.75524V16.5054L33.5574 17.5705L37.549 13.818L37.5502 13.8124H37.553L37.557 13.8067L37.6227 13.8887L38.3945 14.7513V4.1337L37.2362 3.86616V13.8599L36.1341 14.7366V3.60257L34.9486 3.29146V15.5698L33.8776 16.1932V3.04202L32.6961 2.74958L32.6955 2.75524ZM41.9764 3.85993L39.8843 5.18184V16.4245L42.0365 18.833V4.05961L48.973 5.79782V30.8291H48.2233V7.56432L47.1495 7.2764V30.8297H46.2253V7.02978L45.0551 6.71698V22.2116L45.53 22.7422H45.0551V30.8297H44.1314V22.7009L37.3915 15.1801L36.8826 15.7361L43.146 22.7003V30.8297H16.2452V20.1357L8.76067 23.3344V30.8297H6.49853V24.3016L1.6456 26.3753V30.8297H0V32H51L50.9173 30.8297H49.1595V5.65302L41.9764 3.85993ZM43.0485 6.18076V19.9654L44.1309 21.1776V6.4698L43.0485 6.18076ZM25.4173 8.84606L5.71653 21.1618L0.329233 26.3753L13.7779 20.341L25.4173 8.84606ZM25.568 10.4672L24.7537 11.1929L33.188 20.5695L34.1473 20.1922L25.568 10.4672ZM22.0445 18.7527V19.2171H27.4465V26.0891H27.9123V18.7527H22.0445ZM22.0513 19.9462V22.6149H24.1695V19.9462H22.0513ZM24.8767 19.9518V22.6211H26.9949V19.9518H24.8767ZM34.8772 21.4621V21.8264H39.1051V27.2039H39.4695V21.4627L34.8772 21.4621ZM34.8817 22.3954V24.4849H36.5398V22.396H34.8817V22.3954ZM37.0929 22.4011V24.49H38.7515V22.4016L37.0929 22.4011ZM22.0479 23.3796V26.0483H24.1672V23.3796H22.0479ZM24.8738 23.3796V26.0478H26.9915V23.3796H24.8738ZM34.88 25.0833V27.1717H36.5375V25.0833H34.88ZM37.0912 25.0833V27.1717H38.7492V25.0833H37.0912Z" fill="white"/>
</svg>
