<svg width="32" height="20" viewBox="0 0 32 20" fill="none" xmlns="http://www.w3.org/2000/svg">
<path d="M19.6582 0.00035468L16.1467 2.34105V5.65712L19.6996 9.56711V0.125503L24.6302 1.38865V9.87998L24.7582 10.0235L24.7458 1.2985L19.6582 0V0.00035468ZM20.489 1.72202V10.3159L21.0267 10.9816L23.517 8.63628L23.5177 8.63274H23.5194L23.5219 8.6292L23.5629 8.68047L24.0444 9.21959V2.58357L23.3218 2.41635V8.66244L22.6342 9.2104V2.25161L21.8946 2.05717V9.73114L21.2265 10.1207V1.90126L20.4894 1.71849L20.489 1.72202ZM26.2791 2.41246L24.9739 3.23865V10.2653L26.3165 11.7706V2.53725L30.644 3.62364V19.2682H30.1763V4.7277L29.5064 4.54775V19.2686H28.9298V4.39362L28.1998 4.19812V13.8822L28.496 14.2138H28.1998V19.2686H27.6235V14.188L23.4187 9.48757L23.1012 9.83508L27.0087 14.1877V19.2686H10.2262V12.5848L5.55681 14.584V19.2686H4.14554V15.1885L1.11795 16.4845V19.2686H0.0913086V20H31.9086L31.857 19.2686H30.7604V3.53314L26.2791 2.41246ZM26.9479 3.86297V12.4784L27.6232 13.236V4.04363L26.9479 3.86297ZM15.9483 5.52879L3.65767 13.2261L0.296707 16.4845L8.68693 12.7131L15.9483 5.52879ZM16.0424 6.54199L15.5344 6.99556L20.7962 12.856L21.3948 12.6202L16.0424 6.54199ZM13.8442 11.7204V12.0107H17.2143V16.3057H17.5049V11.7204H13.8442ZM13.8484 12.4664V14.1343H15.1699V12.4664H13.8484ZM15.6111 12.4699V14.1382H16.9326V12.4699H15.6111ZM21.8501 13.4138V13.6415H24.4878V17.0025H24.7151V13.4142L21.8501 13.4138ZM21.8529 13.9971V15.3031H22.8873V13.9975H21.8529V13.9971ZM23.2324 14.0007V15.3062H24.2672V14.001L23.2324 14.0007ZM13.8463 14.6123V16.2802H15.1685V14.6123H13.8463ZM15.6093 14.6123V16.2799H16.9304V14.6123H15.6093ZM21.8519 15.6771V16.9823H22.8859V15.6771H21.8519ZM23.2313 15.6771V16.9823H24.2657V15.6771H23.2313Z" fill="#164D59"/>
</svg>
