<svg width="32" height="20" viewBox="0 0 32 20" fill="none" xmlns="http://www.w3.org/2000/svg">
<path d="M19.5669 0.00035468L16.0554 2.34105V5.65712L19.6083 9.56711V0.125503L24.5389 1.38865V9.87998L24.6669 10.0235L24.6545 1.2985L19.5669 0V0.00035468ZM20.3977 1.72202V10.3159L20.9354 10.9816L23.4257 8.63628L23.4264 8.63274H23.4281L23.4306 8.6292L23.4716 8.68047L23.9531 9.21959V2.58357L23.2305 2.41635V8.66244L22.5429 9.2104V2.25161L21.8033 2.05717V9.73114L21.1352 10.1207V1.90126L20.3981 1.71849L20.3977 1.72202ZM26.1878 2.41246L24.8825 3.23865V10.2653L26.2252 11.7706V2.53725L30.5527 3.62364V19.2682H30.085V4.7277L29.4151 4.54775V19.2686H28.8385V4.39362L28.1085 4.19812V13.8822L28.4047 14.2138H28.1085V19.2686H27.5322V14.188L23.3274 9.48757L23.0099 9.83508L26.9174 14.1877V19.2686H10.1349V12.5848L5.4655 14.584V19.2686H4.05423V15.1885L1.02664 16.4845V19.2686H0V20H31.8173L31.7657 19.2686H30.669V3.53314L26.1878 2.41246ZM26.8566 3.86297V12.4784L27.5319 13.236V4.04363L26.8566 3.86297ZM15.857 5.52879L3.56637 13.2261L0.205398 16.4845L8.59562 12.7131L15.857 5.52879ZM15.9511 6.54199L15.4431 6.99556L20.7049 12.856L21.3034 12.6202L15.9511 6.54199ZM13.7528 11.7204V12.0107H17.123V16.3057H17.4136V11.7204H13.7528ZM13.7571 12.4664V14.1343H15.0786V12.4664H13.7571ZM15.5198 12.4699V14.1382H16.8412V12.4699H15.5198ZM21.7588 13.4138V13.6415H24.3964V17.0025H24.6238V13.4142L21.7588 13.4138ZM21.7616 13.9971V15.3031H22.796V13.9975H21.7616V13.9971ZM23.1411 14.0007V15.3062H24.1758V14.001L23.1411 14.0007ZM13.755 14.6123V16.2802H15.0772V14.6123H13.755ZM15.518 14.6123V16.2799H16.8391V14.6123H15.518ZM21.7606 15.6771V16.9823H22.7946V15.6771H21.7606ZM23.14 15.6771V16.9823H24.1744V15.6771H23.14Z" fill="#194290"/>
</svg>
