<svg width="28" height="32" viewBox="0 0 28 32" fill="none" xmlns="http://www.w3.org/2000/svg">
<path d="M6 14C5.295 14 4.62813 14.1437 4 14.3687V14C4 11.7937 5.79375 10 8 10C9.10437 10 10 9.10437 10 8C10 6.89562 9.10625 6 8 6C3.58875 6 0 9.5875 0 14V20C0 23.3137 2.68625 26 6 26C9.31375 26 12 23.3137 12 20C12 16.6862 9.3125 14 6 14Z" fill="#194290"/>
<path opacity="0.4" d="M22 14C21.295 14 20.6281 14.1441 20 14.3674V14C20 11.7937 21.7937 10 24 10C25.1044 10 26 9.10437 26 8C26 6.89562 25.1044 6 24 6C19.5887 6 16 9.58875 16 14V20C16 23.3137 18.6862 26 22 26C25.3138 26 28 23.3137 28 20C28 16.6862 25.3125 14 22 14Z" fill="#194290"/>
</svg>
