<svg width="16" height="16" viewBox="0 0 16 16" fill="none" xmlns="http://www.w3.org/2000/svg">
<g clip-path="url(#clip0_11501_18126)">
<g clip-path="url(#clip1_11501_18126)">
<path d="M11.8425 10.4214H11.094L10.8288 10.1656C11.7572 9.08555 12.3162 7.6834 12.3162 6.15809C12.3162 2.75693 9.55925 0 6.15809 0C2.75693 0 0 2.75693 0 6.15809C0 9.55925 2.75693 12.3162 6.15809 12.3162C7.6834 12.3162 9.08555 11.7572 10.1656 10.8288L10.4214 11.094V11.8425L15.1584 16.57L16.57 15.1584L11.8425 10.4214ZM6.15809 10.4214C3.79907 10.4214 1.8948 8.51711 1.8948 6.15809C1.8948 3.79907 3.79907 1.8948 6.15809 1.8948C8.51711 1.8948 10.4214 3.79907 10.4214 6.15809C10.4214 8.51711 8.51711 10.4214 6.15809 10.4214Z" fill="white"/>
</g>
</g>
<defs>
<clipPath id="clip0_11501_18126">
<rect width="16" height="16" fill="white"/>
</clipPath>
<clipPath id="clip1_11501_18126">
<rect width="20" height="20" fill="white" transform="translate(-2 -2)"/>
</clipPath>
</defs>
</svg>
