<svg width="28" height="28" viewBox="0 0 28 28" fill="none" xmlns="http://www.w3.org/2000/svg">
<path d="M23.3346 15.4609C23.5667 15.4609 23.7893 15.5531 23.9533 15.7173L26.87 18.6339C27.2117 18.9756 27.2117 19.5296 26.87 19.8713L20.1971 26.5443H16.043V22.3901L22.716 15.7173C22.88 15.5531 23.1026 15.4609 23.3346 15.4609Z" fill="#1E9888"/>
<path d="M1.75 1.46094C1.26675 1.46094 0.875 1.85269 0.875 2.33594V7.29427H23.625V2.33594C23.625 1.85269 23.2332 1.46094 22.75 1.46094H1.75Z" fill="#1E9888"/>
<path fill-rule="evenodd" clip-rule="evenodd" d="M23.625 9.03906H0.875V23.3307C0.875 23.814 1.26675 24.2057 1.75 24.2057H14.2917V21.6601L21.4772 14.4746C21.9695 13.9823 22.6372 13.7057 23.3333 13.7057C23.4312 13.7057 23.5286 13.7112 23.625 13.7219V9.03906ZM8.75 15.1641H6.41667V13.4141H8.75V15.1641ZM18.0833 15.1641H11.0833V13.4141H18.0833V15.1641ZM8.75 19.8307H6.41667V18.0807H8.75V19.8307ZM14.5833 19.8307H11.0833V18.0807H14.5833V19.8307Z" fill="#1E9888"/>
</svg>
