<svg width="28" height="28" viewBox="0 0 28 28" fill="none" xmlns="http://www.w3.org/2000/svg">
<g clip-path="url(#clip0_11501_18826)">
<path d="M11.667 22.1704V16.3371H16.3337V22.1704C16.3337 22.8121 16.8587 23.3371 17.5004 23.3371H21.0004C21.642 23.3371 22.167 22.8121 22.167 22.1704V14.0037H24.1504C24.687 14.0037 24.9437 13.3388 24.5354 12.9888L14.782 4.20375C14.3387 3.80708 13.662 3.80708 13.2187 4.20375L3.46536 12.9888C3.06869 13.3388 3.31369 14.0037 3.85036 14.0037H5.83369V22.1704C5.83369 22.8121 6.35869 23.3371 7.00036 23.3371H10.5004C11.142 23.3371 11.667 22.8121 11.667 22.1704Z" fill="#1E9888"/>
</g>
<defs>
<clipPath id="clip0_11501_18826">
<rect width="28" height="28" fill="white"/>
</clipPath>
</defs>
</svg>
