<svg width="28" height="28" viewBox="0 0 28 28" fill="none" xmlns="http://www.w3.org/2000/svg">
<g clip-path="url(#clip0_11501_18802)">
<path d="M23.332 3.5H13.9987C13.357 3.5 12.832 4.025 12.832 4.66667V6.545C12.832 6.545 12.832 6.545 12.8437 6.55667L18.677 11.8067C19.412 12.46 19.832 13.4167 19.832 14.4083V15.1667H22.1654V17.5H19.832V19.8333H22.1654V22.1667H19.832V24.5H23.332C23.9737 24.5 24.4987 23.975 24.4987 23.3333V4.66667C24.4987 4.025 23.9737 3.5 23.332 3.5ZM17.4987 8.16667H15.1654V5.83333H17.4987V8.16667ZM22.1654 12.8333H19.832V10.5H22.1654V12.8333ZM22.1654 8.16667H19.832V5.83333H22.1654V8.16667Z" fill="#1E9888"/>
<path d="M17.5 23.3339V14.4089C17.5 14.0822 17.36 13.7672 17.115 13.5455L11.2817 8.29552C11.06 8.08552 10.78 7.99219 10.5 7.99219C10.22 7.99219 9.94 8.09719 9.71833 8.29552L3.885 13.5455C3.64 13.7555 3.5 14.0705 3.5 14.4089V23.3339C3.5 23.9755 4.025 24.5005 4.66667 24.5005H7C7.64167 24.5005 8.16667 23.9755 8.16667 23.3339V18.6672H12.8333V23.3339C12.8333 23.9755 13.3583 24.5005 14 24.5005H16.3333C16.975 24.5005 17.5 23.9755 17.5 23.3339Z" fill="#1E9888"/>
</g>
<defs>
<clipPath id="clip0_11501_18802">
<rect width="28" height="28" fill="white"/>
</clipPath>
</defs>
</svg>
