<svg width="27" height="24" viewBox="0 0 27 24" fill="none" xmlns="http://www.w3.org/2000/svg">
<g clip-path="url(#clip0_11501_18846)">
<path d="M22.8761 14.657V21.3742C22.8761 21.9977 22.3746 22.4992 21.7511 22.4992H16.3136C16.0043 22.4992 15.7511 22.2461 15.7511 21.9367V16.6867C15.7511 16.3773 15.498 16.1242 15.1886 16.1242H11.8136C11.5043 16.1242 11.2511 16.3773 11.2511 16.6867V21.9367C11.2511 22.2461 10.998 22.4992 10.6886 22.4992H5.25113C4.62769 22.4992 4.12613 21.9977 4.12613 21.3742V14.657C4.12613 14.4883 4.20113 14.3289 4.33238 14.2211L13.1449 6.96484C13.3511 6.79609 13.6511 6.79609 13.8621 6.96484L22.6746 14.2211C22.8011 14.3289 22.8761 14.4883 22.8761 14.657ZM26.7949 11.8023L22.8761 8.57266V2.08047C22.8761 1.77109 22.623 1.51797 22.3136 1.51797H19.6886C19.3793 1.51797 19.1261 1.77109 19.1261 2.08047V5.48359L14.9308 2.02891C14.1011 1.34453 12.9011 1.34453 12.0714 2.02891L0.207377 11.8023C-0.0316855 11.9992 -0.064498 12.3555 0.132377 12.5945L1.32769 14.0477C1.52456 14.2867 1.88081 14.3195 2.11988 14.1227L13.1449 5.04297C13.3511 4.87422 13.6511 4.87422 13.8621 5.04297L24.8871 14.1227C25.1261 14.3195 25.4824 14.2867 25.6793 14.0477L26.8746 12.5945C27.0714 12.3508 27.0339 11.9992 26.7949 11.8023Z" fill="#1E9888"/>
</g>
<defs>
<clipPath id="clip0_11501_18846">
<rect width="27" height="24" fill="white"/>
</clipPath>
</defs>
</svg>
