<svg width="28" height="28" viewBox="0 0 28 28" fill="none" xmlns="http://www.w3.org/2000/svg">
<g clip-path="url(#clip0_11433_20470)">
<path d="M14 17.75C13.0054 17.75 12.0516 17.3549 11.3483 16.6517C10.6451 15.9484 10.25 14.9946 10.25 14C10.25 13.0054 10.6451 12.0516 11.3483 11.3483C12.0516 10.6451 13.0054 10.25 14 10.25C14.9946 10.25 15.9484 10.6451 16.6517 11.3483C17.3549 12.0516 17.75 13.0054 17.75 14C17.75 14.9946 17.3549 15.9484 16.6517 16.6517C15.9484 17.3549 14.9946 17.75 14 17.75ZM14 11.75C13.4033 11.75 12.831 11.9871 12.409 12.409C11.9871 12.831 11.75 13.4033 11.75 14C11.75 14.5967 11.9871 15.169 12.409 15.591C12.831 16.0129 13.4033 16.25 14 16.25C14.5967 16.25 15.169 16.0129 15.591 15.591C16.0129 15.169 16.25 14.5967 16.25 14C16.25 13.4033 16.0129 12.831 15.591 12.409C15.169 11.9871 14.5967 11.75 14 11.75Z" fill="#164D59"/>
<path d="M17 26H11V22.955C10.9844 22.8227 10.9339 22.697 10.8536 22.5908C10.7734 22.4845 10.6663 22.4015 10.5433 22.3504C10.4204 22.2992 10.286 22.2817 10.1541 22.2996C10.0221 22.3176 9.89731 22.3704 9.7925 22.4525L7.6325 24.605L3.395 20.3675L5.5475 18.215C5.64368 18.1187 5.70924 17.9961 5.73593 17.8627C5.76262 17.7292 5.74925 17.5909 5.6975 17.465C5.64772 17.3338 5.55954 17.2207 5.44447 17.1404C5.3294 17.0601 5.1928 17.0164 5.0525 17.015H2V11H5.045C5.18251 10.9993 5.31667 10.9575 5.43026 10.88C5.54384 10.8025 5.63168 10.6928 5.6825 10.565C5.73326 10.4395 5.74682 10.302 5.72155 10.169C5.69628 10.036 5.63325 9.91314 5.54 9.815L3.395 7.6325L7.6325 3.395L9.785 5.5475C9.88979 5.63163 10.0153 5.68606 10.1483 5.70509C10.2813 5.72413 10.417 5.70708 10.5412 5.65572C10.6653 5.60437 10.7734 5.52059 10.8542 5.41315C10.9349 5.30572 10.9852 5.17857 11 5.045V2H17V5.045C17.0156 5.17725 17.0661 5.30297 17.1464 5.40923C17.2266 5.5155 17.3337 5.59847 17.4567 5.64964C17.5796 5.7008 17.714 5.71831 17.8459 5.70036C17.9779 5.68241 18.1027 5.62965 18.2075 5.5475L20.36 3.395L24.605 7.64L22.4525 9.7925C22.3563 9.88879 22.2908 10.0114 22.2641 10.1448C22.2374 10.2783 22.2508 10.4166 22.3025 10.5425C22.3523 10.6737 22.4405 10.7868 22.5555 10.8671C22.6706 10.9474 22.8072 10.9911 22.9475 10.9925H26V16.9925H22.955C22.8175 16.9932 22.6833 17.035 22.5697 17.1125C22.4562 17.19 22.3683 17.2997 22.3175 17.4275C22.2667 17.553 22.2532 17.6905 22.2784 17.8235C22.3037 17.9565 22.3667 18.0794 22.46 18.1775L24.6125 20.33L20.3675 24.575L18.215 22.4225C18.1102 22.3404 17.9854 22.2876 17.8534 22.2696C17.7215 22.2517 17.5871 22.2692 17.4642 22.3204C17.3412 22.3715 17.2341 22.4545 17.1539 22.5608C17.0736 22.667 17.0231 22.7927 17.0075 22.925L17 26ZM12.5 24.5H15.5V22.955C15.5216 22.5306 15.663 22.121 15.9077 21.7736C16.1524 21.4262 16.4905 21.1552 16.8829 20.992C17.2752 20.8288 17.7058 20.78 18.1247 20.8514C18.5436 20.9227 18.9338 21.1112 19.25 21.395L20.345 22.49L22.4675 20.3675L21.395 19.25C21.1112 18.9338 20.9227 18.5436 20.8514 18.1247C20.78 17.7058 20.8288 17.2752 20.992 16.8829C21.1552 16.4905 21.4262 16.1524 21.7736 15.9077C22.121 15.663 22.5306 15.5216 22.955 15.5H24.5V12.5H22.955C22.5306 12.4784 22.121 12.337 21.7736 12.0923C21.4262 11.8476 21.1552 11.5095 20.992 11.1171C20.8288 10.7248 20.78 10.2942 20.8514 9.87531C20.9227 9.4564 21.1112 9.06624 21.395 8.75L22.49 7.655L20.3675 5.5175L19.25 6.605C18.9338 6.88884 18.5436 7.07733 18.1247 7.14865C17.7058 7.21996 17.2752 7.17119 16.8829 7.00797C16.4905 6.84476 16.1524 6.57377 15.9077 6.22638C15.663 5.87899 15.5216 5.46939 15.5 5.045V3.5H12.5V5.045C12.4784 5.46939 12.337 5.87899 12.0923 6.22638C11.8476 6.57377 11.5095 6.84476 11.1171 7.00797C10.7248 7.17119 10.2942 7.21996 9.87531 7.14865C9.4564 7.07733 9.06624 6.88884 8.75 6.605L7.6325 5.5175L5.5175 7.6325L6.605 8.75C6.88884 9.06624 7.07733 9.4564 7.14865 9.87531C7.21996 10.2942 7.17119 10.7248 7.00797 11.1171C6.84476 11.5095 6.57377 11.8476 6.22638 12.0923C5.87899 12.337 5.46939 12.4784 5.045 12.5H3.5V15.5H5.045C5.46939 15.5216 5.87899 15.663 6.22638 15.9077C6.57377 16.1524 6.84476 16.4905 7.00797 16.8829C7.17119 17.2752 7.21996 17.7058 7.14865 18.1247C7.07733 18.5436 6.88884 18.9338 6.605 19.25L5.5175 20.3675L7.64 22.49L8.75 21.395C9.06624 21.1112 9.4564 20.9227 9.87531 20.8514C10.2942 20.78 10.7248 20.8288 11.1171 20.992C11.5095 21.1552 11.8476 21.4262 12.0923 21.7736C12.337 22.121 12.4784 22.5306 12.5 22.955V24.5Z" fill="#164D59"/>
</g>
<defs>
<clipPath id="clip0_11433_20470">
<rect width="24" height="24" fill="white" transform="translate(2 2)"/>
</clipPath>
</defs>
</svg>
