<svg width="18" height="18" viewBox="0 0 18 18" fill="none" xmlns="http://www.w3.org/2000/svg">
<g clip-path="url(#clip0_11435_22181)">
<path d="M9 11.8125C8.25408 11.8125 7.53871 11.5162 7.01126 10.9887C6.48382 10.4613 6.1875 9.74592 6.1875 9C6.1875 8.25408 6.48382 7.53871 7.01126 7.01126C7.53871 6.48382 8.25408 6.1875 9 6.1875C9.74592 6.1875 10.4613 6.48382 10.9887 7.01126C11.5162 7.53871 11.8125 8.25408 11.8125 9C11.8125 9.74592 11.5162 10.4613 10.9887 10.9887C10.4613 11.5162 9.74592 11.8125 9 11.8125ZM9 7.3125C8.55245 7.3125 8.12322 7.49029 7.80676 7.80676C7.49029 8.12322 7.3125 8.55245 7.3125 9C7.3125 9.44755 7.49029 9.87678 7.80676 10.1932C8.12322 10.5097 8.55245 10.6875 9 10.6875C9.44755 10.6875 9.87678 10.5097 10.1932 10.1932C10.5097 9.87678 10.6875 9.44755 10.6875 9C10.6875 8.55245 10.5097 8.12322 10.1932 7.80676C9.87678 7.49029 9.44755 7.3125 9 7.3125Z" fill="#164D59"/>
<path d="M11.25 18H6.75V15.7163C6.73831 15.6171 6.70042 15.5228 6.64022 15.4431C6.58003 15.3634 6.4997 15.3011 6.40748 15.2628C6.31527 15.2244 6.21451 15.2113 6.11554 15.2247C6.01658 15.2382 5.92298 15.2778 5.84438 15.3394L4.22438 16.9538L1.04625 13.7756L2.66062 12.1613C2.73276 12.089 2.78193 11.9971 2.80195 11.897C2.82196 11.7969 2.81194 11.6932 2.77312 11.5988C2.73579 11.5004 2.66965 11.4155 2.58335 11.3553C2.49705 11.2951 2.3946 11.2623 2.28938 11.2613H0V6.75H2.28375C2.38688 6.74945 2.4875 6.7181 2.57269 6.65997C2.65788 6.60184 2.72376 6.51958 2.76187 6.42375C2.79995 6.32963 2.81012 6.22653 2.79116 6.12678C2.77221 6.02703 2.72494 5.93485 2.655 5.86125L1.04625 4.22438L4.22438 1.04625L5.83875 2.66062C5.91734 2.72372 6.01144 2.76454 6.11121 2.77882C6.21097 2.7931 6.31275 2.78031 6.40588 2.74179C6.49901 2.70328 6.58009 2.64044 6.64062 2.55986C6.70116 2.47929 6.73893 2.38392 6.75 2.28375V0H11.25V2.28375C11.2617 2.38294 11.2996 2.47723 11.3598 2.55693C11.42 2.63662 11.5003 2.69886 11.5925 2.73723C11.6847 2.7756 11.7855 2.78873 11.8845 2.77527C11.9834 2.76181 12.077 2.72224 12.1556 2.66062L13.77 1.04625L16.9538 4.23L15.3394 5.84438C15.2672 5.91659 15.2181 6.00852 15.1981 6.10861C15.178 6.2087 15.1881 6.31247 15.2269 6.40688C15.2642 6.50526 15.3303 6.5901 15.4166 6.65031C15.5029 6.71052 15.6054 6.7433 15.7106 6.74437H18V11.2444H15.7163C15.6131 11.2449 15.5125 11.2763 15.4273 11.3344C15.3421 11.3925 15.2762 11.4748 15.2381 11.5706C15.2001 11.6647 15.1899 11.7678 15.2088 11.8676C15.2278 11.9673 15.2751 12.0595 15.345 12.1331L16.9594 13.7475L13.7756 16.9312L12.1613 15.3169C12.0826 15.2553 11.989 15.2157 11.8901 15.2022C11.7911 15.1888 11.6904 15.2019 11.5981 15.2403C11.5059 15.2786 11.4256 15.3409 11.3654 15.4206C11.3052 15.5003 11.2673 15.5946 11.2556 15.6937L11.25 18ZM7.875 16.875H10.125V15.7163C10.1412 15.398 10.2472 15.0908 10.4308 14.8302C10.6143 14.5697 10.8679 14.3664 11.1622 14.244C11.4564 14.1216 11.7793 14.085 12.0935 14.1385C12.4077 14.192 12.7003 14.3334 12.9375 14.5463L13.7587 15.3675L15.3506 13.7756L14.5463 12.9375C14.3334 12.7003 14.192 12.4077 14.1385 12.0935C14.085 11.7793 14.1216 11.4564 14.244 11.1622C14.3664 10.8679 14.5697 10.6143 14.8302 10.4308C15.0908 10.2472 15.398 10.1412 15.7163 10.125H16.875V7.875H15.7163C15.398 7.85879 15.0908 7.75277 14.8302 7.56923C14.5697 7.38568 14.3664 7.1321 14.244 6.83784C14.1216 6.54358 14.085 6.22067 14.1385 5.90648C14.192 5.5923 14.3334 5.29968 14.5463 5.0625L15.3675 4.24125L13.7756 2.63812L12.9375 3.45375C12.7003 3.66663 12.4077 3.808 12.0935 3.86149C11.7793 3.91497 11.4564 3.87839 11.1622 3.75598C10.8679 3.63357 10.6143 3.43033 10.4308 3.16978C10.2472 2.90924 10.1412 2.60204 10.125 2.28375V1.125H7.875V2.28375C7.85879 2.60204 7.75277 2.90924 7.56923 3.16978C7.38568 3.43033 7.1321 3.63357 6.83784 3.75598C6.54358 3.87839 6.22067 3.91497 5.90648 3.86149C5.5923 3.808 5.29968 3.66663 5.0625 3.45375L4.22438 2.63812L2.63812 4.22438L3.45375 5.0625C3.66663 5.29968 3.808 5.5923 3.86149 5.90648C3.91497 6.22067 3.87839 6.54358 3.75598 6.83784C3.63357 7.1321 3.43033 7.38568 3.16978 7.56923C2.90924 7.75277 2.60204 7.85879 2.28375 7.875H1.125V10.125H2.28375C2.60204 10.1412 2.90924 10.2472 3.16978 10.4308C3.43033 10.6143 3.63357 10.8679 3.75598 11.1622C3.87839 11.4564 3.91497 11.7793 3.86149 12.0935C3.808 12.4077 3.66663 12.7003 3.45375 12.9375L2.63812 13.7756L4.23 15.3675L5.0625 14.5463C5.29968 14.3334 5.5923 14.192 5.90648 14.1385C6.22067 14.085 6.54358 14.1216 6.83784 14.244C7.1321 14.3664 7.38568 14.5697 7.56923 14.8302C7.75277 15.0908 7.85879 15.398 7.875 15.7163V16.875Z" fill="#164D59"/>
</g>
<defs>
<clipPath id="clip0_11435_22181">
<rect width="18" height="18" fill="white"/>
</clipPath>
</defs>
</svg>
